<svg width="600" height="250" viewBox="0 0 600 250" fill="none" xmlns="http://www.w3.org/2000/svg">
  <rect width="600" height="250" rx="8" fill="#F4F7F2"/>
  <rect x="1" y="1" width="598" height="248" rx="7" stroke="#C8D2CB" stroke-width="2"/>
  <rect width="10" height="250" rx="5" fill="#0E7C66"/>
  <text x="34" y="43" fill="#0E7C66" font-family="Inter, Segoe UI, Arial, sans-serif" font-size="13" font-weight="900">DEVOLU&#199;&#213;ES E RMA</text>
  <text x="34" y="84" fill="#121A16" font-family="Inter, Segoe UI, Arial, sans-serif" font-size="31" font-weight="900">ReturnOps</text>
  <text x="34" y="116" fill="#526058" font-family="Inter, Segoe UI, Arial, sans-serif" font-size="16">SLA, reembolsos e estoque</text>
  <text x="34" y="141" fill="#526058" font-family="Inter, Segoe UI, Arial, sans-serif" font-size="16">em uma central operacional.</text>
  <text x="34" y="203" fill="#121A16" font-family="Inter, Segoe UI, Arial, sans-serif" font-size="13" font-weight="800">NODE.JS  /  API  /  AUTOMA&#199;&#195;O</text>
  <g transform="translate(352 28)">
    <rect width="216" height="194" rx="6" fill="#121A16"/>
    <text x="16" y="28" fill="#D5DDD7" font-family="Inter, Segoe UI, Arial, sans-serif" font-size="12" font-weight="800">FILA DE RMA</text>
    <rect x="16" y="45" width="84" height="54" rx="5" fill="#FFFFFF"/>
    <text x="27" y="65" fill="#68736C" font-family="Inter, Segoe UI, Arial, sans-serif" font-size="10">ABERTOS</text>
    <text x="27" y="89" fill="#121A16" font-family="Inter, Segoe UI, Arial, sans-serif" font-size="22" font-weight="900">24</text>
    <rect x="112" y="45" width="88" height="54" rx="5" fill="#FF6B4A"/>
    <text x="123" y="65" fill="#5E1B10" font-family="Inter, Segoe UI, Arial, sans-serif" font-size="10">SLA</text>
    <text x="123" y="89" fill="#FFFFFF" font-family="Inter, Segoe UI, Arial, sans-serif" font-size="22" font-weight="900">5</text>
    <rect x="16" y="118" width="184" height="12" rx="4" fill="#26352C"/><rect x="16" y="118" width="142" height="12" rx="4" fill="#0E7C66"/>
    <rect x="16" y="144" width="184" height="12" rx="4" fill="#26352C"/><rect x="16" y="144" width="106" height="12" rx="4" fill="#E5B94B"/>
    <text x="16" y="180" fill="#9FB0A5" font-family="Inter, Segoe UI, Arial, sans-serif" font-size="11">pr&#243;xima a&#231;&#227;o priorizada</text>
  </g>
</svg>
