<svg width="600" height="250" viewBox="0 0 600 250" fill="none" xmlns="http://www.w3.org/2000/svg">
  <rect width="600" height="250" rx="8" fill="#111814"/>
  <rect x="1" y="1" width="598" height="248" rx="7" stroke="#2C3931" stroke-width="2"/>
  <rect width="10" height="250" rx="5" fill="#2F9B78"/>
  <text x="34" y="43" fill="#3BAA83" font-family="Inter, Segoe UI, Arial, sans-serif" font-size="13" font-weight="900">LOG&#205;STICA</text>
  <text x="34" y="84" fill="#F4F7F2" font-family="Inter, Segoe UI, Arial, sans-serif" font-size="31" font-weight="900">LogixOps</text>
  <text x="34" y="116" fill="#AAB5AD" font-family="Inter, Segoe UI, Arial, sans-serif" font-size="16">SLA, incidentes e &#250;ltima milha</text>
  <text x="34" y="141" fill="#AAB5AD" font-family="Inter, Segoe UI, Arial, sans-serif" font-size="16">em uma torre de controle.</text>
  <text x="34" y="203" fill="#E7ECE8" font-family="Inter, Segoe UI, Arial, sans-serif" font-size="13" font-weight="800">NODE.JS  /  ROTAS  /  SLA</text>
  <g transform="translate(352 28)">
    <rect width="216" height="194" rx="6" fill="#0B0F0D"/>
    <text x="16" y="28" fill="#D5DDD7" font-family="Inter, Segoe UI, Arial, sans-serif" font-size="12" font-weight="800">ROTAS ATIVAS</text>
    <path d="M28 150C48 114 70 138 92 96C112 58 136 82 158 62C174 48 188 55 196 42" stroke="#3BAA83" stroke-width="5" stroke-linecap="round" stroke-dasharray="7 7"/>
    <circle cx="28" cy="150" r="8" fill="#E5B94B"/><circle cx="92" cy="96" r="8" fill="#FF6B4A"/><circle cx="158" cy="62" r="8" fill="#4A74C9"/><circle cx="196" cy="42" r="8" fill="#3BAA83"/>
    <rect x="16" y="166" width="184" height="16" rx="4" fill="#26352C"/><rect x="16" y="166" width="151" height="16" rx="4" fill="#0E7C66"/>
  </g>
</svg>
