<svg width="600" height="250" viewBox="0 0 600 250" fill="none" xmlns="http://www.w3.org/2000/svg">
  <rect width="600" height="250" rx="8" fill="#111814"/>
  <rect x="1" y="1" width="598" height="248" rx="7" stroke="#2C3931" stroke-width="2"/>
  <rect width="10" height="250" rx="5" fill="#4A74C9"/>
  <text x="34" y="43" fill="#79A0ED" font-family="Consolas, Segoe UI, Arial, sans-serif" font-size="13" font-weight="900">MARKETING E LINKS  /  06</text>
  <text x="34" y="84" fill="#F4F7F2" font-family="Inter, Segoe UI, Arial, sans-serif" font-size="31" font-weight="900">LinkPulse</text>
  <text x="34" y="116" fill="#AAB5AD" font-family="Inter, Segoe UI, Arial, sans-serif" font-size="16">Links de campanha, cliques, QR</text>
  <text x="34" y="141" fill="#AAB5AD" font-family="Inter, Segoe UI, Arial, sans-serif" font-size="16">e convers&#227;o por canal.</text>
  <text x="34" y="203" fill="#E7ECE8" font-family="Consolas, Segoe UI, Arial, sans-serif" font-size="12" font-weight="800">NODE.JS  /  ANALYTICS  /  API  &#8599;</text>
  <g transform="translate(372 28)">
    <rect width="196" height="194" rx="6" fill="#090C0A" stroke="#27322B"/>
    <text x="14" y="28" fill="#9FB0A5" font-family="Consolas, Segoe UI, Arial, sans-serif" font-size="10">CLIQUES / 7 DIAS</text>
    <path d="M14 138H180M14 104H180M14 70H180" stroke="#202B24"/>
    <path d="M16 143L42 118L68 126L94 82L120 98L148 54L180 68" stroke="#79A0ED" stroke-width="4" stroke-linecap="round" stroke-linejoin="round"/>
    <circle cx="148" cy="54" r="6" fill="#FF6B4A"/>
    <rect x="14" y="158" width="72" height="20" rx="4" fill="#253B66"/><text x="27" y="172" fill="#AFC5F4" font-family="Consolas" font-size="9">CONVERS&#195;O 18%</text>
  </g>
</svg>
