<svg width="720" height="280" viewBox="0 0 720 280" fill="none" xmlns="http://www.w3.org/2000/svg">
  <style>text{letter-spacing:0}</style>
  <g data-box="true">
    <rect data-bound="true" x="1" y="1" width="718" height="278" rx="7" fill="#080C0A" stroke="#2A3930" stroke-width="2"/>
    <rect x="0" y="0" width="8" height="280" rx="4" fill="#F2C14E"/>
    <path d="M30 0V280M694 0V280" stroke="#1A241E"/>
    <path d="M0 42H720M0 256H720" stroke="#1A241E"/>
    <g transform="translate(22 54)" data-box="true">
    <rect data-bound="true" x="0.5" y="0.5" width="429" height="189" rx="6" fill="#101713" stroke="#2A3930" />

    <text x="22" y="30" fill="#F2C14E" font-family="Consolas, Cascadia Mono, Segoe UI, monospace" font-size="12" font-weight="850" letter-spacing="0" >02 / FINANCEIRO</text><text x="22" y="76" fill="#F4F7F2" font-family="Inter, Segoe UI, Arial, sans-serif" font-size="31" font-weight="950" letter-spacing="0" >CobreFlow</text><text x="22" y="112" fill="#9FB0A5" font-family="Inter, Segoe UI, Arial, sans-serif" font-size="15" font-weight="550" letter-spacing="0" >Receb&#237;veis, concilia&#231;&#227;o e</text><text x="22" y="136" fill="#9FB0A5" font-family="Inter, Segoe UI, Arial, sans-serif" font-size="15" font-weight="550" letter-spacing="0" >cobran&#231;a ativa priorizada.</text><path d="M22 148H408" stroke="#2A3930" stroke-width="1" /><text x="22" y="172" fill="#F4F7F2" font-family="Consolas, Cascadia Mono, Segoe UI, monospace" font-size="11" font-weight="800" letter-spacing="0" >NODE.JS / FINAN&#199;AS / FILAS</text><text x="344" y="172" fill="#F2C14E" font-family="Consolas, Cascadia Mono, Segoe UI, monospace" font-size="11" font-weight="850" letter-spacing="0" >ABRIR &#8599;</text>
  </g><g transform="translate(474 54)" data-box="true">
    <rect data-bound="true" x="0.5" y="0.5" width="221" height="189" rx="6" fill="#101713" stroke="#2A3930" />

    <text x="18" y="28" fill="#9FB0A5" font-family="Consolas, Cascadia Mono, Segoe UI, monospace" font-size="11" font-weight="750" letter-spacing="0" >CARTEIRA</text><text x="18" y="58" fill="#F2C14E" font-family="Inter, Segoe UI, Arial, sans-serif" font-size="22" font-weight="900" letter-spacing="0" >R$ 126 mil</text><rect x="18" y="82" width="146" height="14" rx="3" fill="#1A241E"/><rect x="18" y="82" width="112" height="14" rx="3" fill="#F2C14E"/><rect x="18" y="108" width="146" height="14" rx="3" fill="#1A241E"/><rect x="18" y="108" width="78" height="14" rx="3" fill="#F2C14E"/><rect x="18" y="134" width="146" height="14" rx="3" fill="#1A241E"/><rect x="18" y="134" width="45" height="14" rx="3" fill="#FF6B4A"/><text x="18" y="176" fill="#F2C14E" font-family="Consolas, Cascadia Mono, Segoe UI, monospace" font-size="10" font-weight="750" letter-spacing="0" >RISCO PRIORIZADO</text>
  </g><text x="24" y="25" fill="#65736A" font-family="Consolas, Cascadia Mono, Segoe UI, monospace" font-size="10" font-weight="700" letter-spacing="0" >SISTEMA COMERCIAL</text>
  </g>
</svg>
