<svg width="600" height="250" viewBox="0 0 600 250" fill="none" xmlns="http://www.w3.org/2000/svg">
  <rect width="600" height="250" rx="8" fill="#F4F7F2"/>
  <rect x="1" y="1" width="598" height="248" rx="7" stroke="#C8D2CB" stroke-width="2"/>
  <rect width="10" height="250" rx="5" fill="#4A74C9"/>
  <text x="34" y="43" fill="#365EA9" font-family="Inter, Segoe UI, Arial, sans-serif" font-size="13" font-weight="900">MARKETING E VENDAS</text>
  <text x="34" y="84" fill="#121A16" font-family="Inter, Segoe UI, Arial, sans-serif" font-size="31" font-weight="900">LeadOps</text>
  <text x="34" y="116" fill="#526058" font-family="Inter, Segoe UI, Arial, sans-serif" font-size="16">ROI, pontua&#231;&#227;o de leads e</text>
  <text x="34" y="141" fill="#526058" font-family="Inter, Segoe UI, Arial, sans-serif" font-size="16">automa&#231;&#245;es comerciais.</text>
  <text x="34" y="203" fill="#121A16" font-family="Inter, Segoe UI, Arial, sans-serif" font-size="13" font-weight="800">NODE.JS  /  FUNIL  /  ROI</text>
  <g transform="translate(352 28)">
    <rect width="216" height="194" rx="6" fill="#121A16"/>
    <text x="16" y="28" fill="#D5DDD7" font-family="Inter, Segoe UI, Arial, sans-serif" font-size="12" font-weight="800">ATRIBUI&#199;&#195;O</text>
    <rect x="16" y="48" width="184" height="40" rx="5" fill="#FFFFFF"/>
    <text x="27" y="66" fill="#66716A" font-family="Inter, Segoe UI, Arial, sans-serif" font-size="10">RETORNO</text><text x="112" y="75" fill="#0E7C66" font-family="Inter, Segoe UI, Arial, sans-serif" font-size="20" font-weight="900">4,2x</text>
    <path d="M18 154L50 136L80 142L112 106L144 119L180 95L198 103" stroke="#79A0ED" stroke-width="4" stroke-linecap="round" stroke-linejoin="round"/>
    <path d="M18 158H198" stroke="#35443A" stroke-width="2"/>
    <circle cx="112" cy="106" r="5" fill="#FF6B4A"/><circle cx="180" cy="95" r="5" fill="#E5B94B"/>
    <text x="16" y="184" fill="#9FB0A5" font-family="Inter, Segoe UI, Arial, sans-serif" font-size="11">campanhas priorizadas</text>
  </g>
</svg>
