<svg width="1280" height="360" viewBox="0 0 1280 360" fill="none" xmlns="http://www.w3.org/2000/svg">
  <rect width="1280" height="360" rx="8" fill="#0D120F"/>
  <rect x="1" y="1" width="1278" height="358" rx="7" stroke="#27322B" stroke-width="2"/>
  <g transform="translate(36 34)">
    <rect width="750" height="292" rx="7" fill="#080B09" stroke="#27322B"/>
    <rect width="750" height="38" rx="7" fill="#151D18"/>
    <rect y="31" width="750" height="7" fill="#151D18"/>
    <circle cx="20" cy="19" r="4" fill="#FF6B4A"/><circle cx="36" cy="19" r="4" fill="#F1CE77"/><circle cx="52" cy="19" r="4" fill="#3BAA83"/>
    <text x="80" y="24" fill="#718078" font-family="Consolas, Segoe UI, Arial, sans-serif" font-size="11">src/services/operation-engine.js</text>
    <rect x="0" y="38" width="48" height="254" fill="#0B0F0D"/>
    <g fill="#4D5B52" font-family="Consolas, Segoe UI, Arial, sans-serif" font-size="12">
      <text x="18" y="68">1</text><text x="18" y="94">2</text><text x="18" y="120">3</text><text x="18" y="146">4</text><text x="18" y="172">5</text><text x="18" y="198">6</text><text x="18" y="224">7</text><text x="18" y="250">8</text>
    </g>
    <g font-family="Consolas, Segoe UI, Arial, sans-serif" font-size="14">
      <text x="66" y="68" fill="#FF8D73">export</text><text x="118" y="68" fill="#79A0ED">function</text><text x="188" y="68" fill="#F4F7F2">priorizarFila</text><text x="300" y="68" fill="#AAB5AD">(itens) {</text>
      <text x="86" y="94" fill="#79A0ED">return</text><text x="138" y="94" fill="#AAB5AD">itens</text>
      <text x="106" y="120" fill="#AAB5AD">.filter(item =&gt; item.status !== </text><text x="382" y="120" fill="#F1CE77">'concluido'</text><text x="470" y="120" fill="#AAB5AD">)</text>
      <text x="106" y="146" fill="#AAB5AD">.map(calcularRisco)</text>
      <text x="106" y="172" fill="#AAB5AD">.sort((a, b) =&gt; b.score - a.score)</text>
      <text x="106" y="198" fill="#AAB5AD">.slice(</text><text x="158" y="198" fill="#F1CE77">0</text><text x="168" y="198" fill="#AAB5AD">, </text><text x="186" y="198" fill="#F1CE77">10</text><text x="204" y="198" fill="#AAB5AD">);</text>
      <text x="66" y="224" fill="#AAB5AD">}</text>
      <text x="66" y="268" fill="#4D5B52">// regra de neg&#243;cio test&#225;vel e isolada</text>
    </g>
  </g>
  <g transform="translate(812 34)">
    <text x="0" y="18" fill="#3BAA83" font-family="Consolas, Segoe UI, Arial, sans-serif" font-size="13" font-weight="900">ENGENHARIA DE ENTREGA</text>
    <text x="0" y="54" fill="#F4F7F2" font-family="Inter, Segoe UI, Arial, sans-serif" font-size="26" font-weight="900">C&#243;digo que pode</text>
    <text x="0" y="86" fill="#F4F7F2" font-family="Inter, Segoe UI, Arial, sans-serif" font-size="26" font-weight="900">ser verificado.</text>
    <g transform="translate(0 116)">
      <rect width="420" height="42" rx="5" fill="#111814" stroke="#27322B"/>
      <circle cx="22" cy="21" r="7" fill="#3BAA83"/>
      <text x="42" y="26" fill="#E7ECE8" font-family="Inter, Segoe UI, Arial, sans-serif" font-size="14" font-weight="800">Testes de regra de neg&#243;cio</text>
      <text x="374" y="26" fill="#72C5AE" font-family="Consolas, Segoe UI, Arial, sans-serif" font-size="11">PASS</text>
    </g>
    <g transform="translate(0 168)">
      <rect width="420" height="42" rx="5" fill="#111814" stroke="#27322B"/>
      <circle cx="22" cy="21" r="7" fill="#79A0ED"/>
      <text x="42" y="26" fill="#E7ECE8" font-family="Inter, Segoe UI, Arial, sans-serif" font-size="14" font-weight="800">Smoke tests de API e interface</text>
      <text x="374" y="26" fill="#AFC5F4" font-family="Consolas, Segoe UI, Arial, sans-serif" font-size="11">PASS</text>
    </g>
    <g transform="translate(0 220)">
      <rect width="420" height="42" rx="5" fill="#111814" stroke="#27322B"/>
      <circle cx="22" cy="21" r="7" fill="#F1CE77"/>
      <text x="42" y="26" fill="#E7ECE8" font-family="Inter, Segoe UI, Arial, sans-serif" font-size="14" font-weight="800">Seeds, README e deploy preparado</text>
      <text x="362" y="26" fill="#F8D98A" font-family="Consolas, Segoe UI, Arial, sans-serif" font-size="11">READY</text>
    </g>
    <text x="0" y="292" fill="#718078" font-family="Consolas, Segoe UI, Arial, sans-serif" font-size="11">VALIDAR  &gt;  DOCUMENTAR  &gt;  ENTREGAR</text>
  </g>
</svg>
