<svg width="116" height="44" viewBox="0 0 116 44" fill="none" xmlns="http://www.w3.org/2000/svg">
  <style>text{letter-spacing:0}</style>
  <g data-box="true">
    <rect data-bound="true" x="1" y="1" width="114" height="42" rx="7" fill="#080C0A" stroke="#2A3930" stroke-width="2"/>
    <rect x="0" y="0" width="8" height="44" rx="4" fill="#35C99A"/>
    <path d="M30 0V44M90 0V44" stroke="#1A241E"/>
    <path d="M0 42H116M0 20H116" stroke="#1A241E"/>
    <g transform="translate(0 0)" data-box="true">
    <rect data-bound="true" x="0.5" y="0.5" width="115" height="43" rx="4" fill="#101713" stroke="#2A3930" />

    <g transform="translate(12 12)" stroke="#35C99A" stroke-width="2" stroke-linecap="round" stroke-linejoin="round"><circle cx="4" cy="4" r="3"/><circle cx="16" cy="16" r="3"/><circle cx="4" cy="16" r="3"/><path d="M4 7v6M7 4h4a5 5 0 015 5v4M7 16h6"/></g><text x="40" y="29" fill="#F4F7F2" font-family="Inter, Segoe UI, Arial, sans-serif" font-size="12" font-weight="850" letter-spacing="0" >PROCESSO</text><rect x="0" y="0" width="5" height="44" rx="2.5" fill="#35C99A"/>
  </g>
  </g>
</svg>
