<svg width="900" height="390" viewBox="0 0 900 390" fill="none" xmlns="http://www.w3.org/2000/svg">
  <style>text{letter-spacing:0}</style>
  <g data-box="true">
    <rect data-bound="true" x="1" y="1" width="898" height="388" rx="7" fill="#080C0A" stroke="#2A3930" stroke-width="2"/>
    <rect x="0" y="0" width="8" height="390" rx="4" fill="#35C99A"/>
    <path d="M30 0V390M874 0V390" stroke="#1A241E"/>
    <path d="M0 42H900M0 366H900" stroke="#1A241E"/>
    <g transform="translate(24 58)" data-box="true">
    <rect data-bound="true" x="0.5" y="0.5" width="431" height="303" rx="0" fill="transparent" stroke="transparent" />


  <text x="24" y="34" fill="#FF6B4A" font-family="Consolas, Cascadia Mono, Segoe UI, monospace" font-size="13" font-weight="850" letter-spacing="0" >DESENVOLVEDOR WEB / FREELANCE</text>
  <text x="24" y="92" fill="#F4F7F2" font-family="Inter, Segoe UI, Arial, sans-serif" font-size="50" font-weight="950" letter-spacing="0" >Kenji Hidehira</text>
  <rect x="24" y="110" width="76" height="5" rx="2.5" fill="#FF6B4A"/>
  <text x="24" y="150" fill="#F4F7F2" font-family="Inter, Segoe UI, Arial, sans-serif" font-size="21" font-weight="800" letter-spacing="0" >Sistemas web para opera&#231;&#245;es</text>
  <text x="24" y="178" fill="#F4F7F2" font-family="Inter, Segoe UI, Arial, sans-serif" font-size="21" font-weight="800" letter-spacing="0" >que precisam vender, medir e escalar.</text>
  <text x="24" y="220" fill="#9FB0A5" font-family="Inter, Segoe UI, Arial, sans-serif" font-size="14" font-weight="550" letter-spacing="0" >Interface pr&#243;pria. Regras reais. Entrega verific&#225;vel.</text>
  <g transform="translate(24 246)" data-box="true">
    <rect data-bound="true" x="0.5" y="0.5" width="123" height="33" rx="4" fill="#123B2F" stroke="#35C99A" />

    <text x="15" y="22" fill="#F4F7F2" font-family="Consolas, Cascadia Mono, Segoe UI, monospace" font-size="11" font-weight="850" letter-spacing="0" >SISTEMAS</text>
  </g>
  <g transform="translate(158 246)" data-box="true">
    <rect data-bound="true" x="0.5" y="0.5" width="107" height="33" rx="4" fill="#21375F" stroke="#6F9EFF" />

    <text x="15" y="22" fill="#F4F7F2" font-family="Consolas, Cascadia Mono, Segoe UI, monospace" font-size="11" font-weight="850" letter-spacing="0" >APIS REST</text>
  </g>
  <g transform="translate(276 246)" data-box="true">
    <rect data-bound="true" x="0.5" y="0.5" width="131" height="33" rx="4" fill="#4A3C18" stroke="#F2C14E" />

    <text x="15" y="22" fill="#F4F7F2" font-family="Consolas, Cascadia Mono, Segoe UI, monospace" font-size="11" font-weight="850" letter-spacing="0" >AUTOMA&#199;&#213;ES</text>
  </g>
  </g>
   <g transform="translate(486 58)" data-box="true">
    <rect data-bound="true" x="0.5" y="0.5" width="371" height="303" rx="6" fill="#101713" stroke="#2A3930" />


  <circle cx="18" cy="18" r="4" fill="#FF6B4A"/><circle cx="32" cy="18" r="4" fill="#F2C14E"/><circle cx="46" cy="18" r="4" fill="#35C99A"/>
  <text x="68" y="23" fill="#9FB0A5" font-family="Consolas, Cascadia Mono, Segoe UI, monospace" font-size="11" font-weight="500" letter-spacing="0" >ops.control / execu&#231;&#227;o</text>
  <g transform="translate(18 46)" data-box="true">
    <rect data-bound="true" x="0.5" y="0.5" width="159" height="71" rx="5" fill="#151F19" stroke="#2A3930" />

    <text x="14" y="24" fill="#65736A" font-family="Consolas, Cascadia Mono, Segoe UI, monospace" font-size="10" font-weight="700" letter-spacing="0" >RECEITA</text><text x="14" y="54" fill="#F4F7F2" font-family="Inter, Segoe UI, Arial, sans-serif" font-size="22" font-weight="900" letter-spacing="0" >R$ 84,2 mil</text><text x="116" y="54" fill="#35C99A" font-family="Consolas, Cascadia Mono, Segoe UI, monospace" font-size="10" font-weight="800" letter-spacing="0" >+12%</text>
  </g>
  <g transform="translate(188 46)" data-box="true">
    <rect data-bound="true" x="0.5" y="0.5" width="159" height="71" rx="5" fill="#151F19" stroke="#2A3930" />

    <text x="14" y="24" fill="#65736A" font-family="Consolas, Cascadia Mono, Segoe UI, monospace" font-size="10" font-weight="700" letter-spacing="0" >CONVERS&#195;O</text><text x="14" y="54" fill="#6F9EFF" font-family="Inter, Segoe UI, Arial, sans-serif" font-size="22" font-weight="900" letter-spacing="0" >31,8%</text><text x="103" y="54" fill="#9FB0A5" font-family="Consolas, Cascadia Mono, Segoe UI, monospace" font-size="10" font-weight="700" letter-spacing="0" >META</text>
  </g>
  <g transform="translate(18 128)" data-box="true">
    <rect data-bound="true" x="0.5" y="0.5" width="219" height="111" rx="5" fill="#151F19" stroke="#2A3930" />

    <text x="14" y="24" fill="#9FB0A5" font-family="Consolas, Cascadia Mono, Segoe UI, monospace" font-size="10" font-weight="700" letter-spacing="0" >DESEMPENHO / 7 DIAS</text><path d="M16 88L48 70L78 79L108 47L140 59L170 35L202 44" stroke="#35C99A" stroke-width="4" fill="none" stroke-linecap="round" stroke-linejoin="round"/><path d="M16 96H202M16 64H202" stroke="#1A241E"/>
  </g>
  <g transform="translate(248 128)" data-box="true">
    <rect data-bound="true" x="0.5" y="0.5" width="99" height="111" rx="5" fill="#151F19" stroke="#2A3930" />

    <text x="12" y="24" fill="#9FB0A5" font-family="Consolas, Cascadia Mono, Segoe UI, monospace" font-size="10" font-weight="700" letter-spacing="0" >FUNIL</text><rect x="12" y="42" width="72" height="12" rx="3" fill="#35C99A"/><rect x="12" y="62" width="56" height="12" rx="3" fill="#6F9EFF"/><rect x="12" y="82" width="38" height="12" rx="3" fill="#F2C14E"/>
  </g>
  <g transform="translate(18 250)" data-box="true">
    <rect data-bound="true" x="0.5" y="0.5" width="329" height="37" rx="4" fill="#123B2F" stroke="#35C99A" />

    <text x="13" y="24" fill="#35C99A" font-family="Consolas, Cascadia Mono, Segoe UI, monospace" font-size="11" font-weight="700" letter-spacing="0" >> fluxo executado sem pend&#234;ncias</text><text x="274" y="24" fill="#080C0A" font-family="Consolas, Cascadia Mono, Segoe UI, monospace" font-size="10" font-weight="900" letter-spacing="0" >OK</text>
  </g>
  </g>
   <g transform="translate(24 12)" data-box="true">
    <rect data-bound="true" x="0.5" y="0.5" width="833" height="33" rx="5" fill="#101713" stroke="#2A3930" />

    <g transform="translate(10 5)" data-box="true">
    <rect data-bound="true" x="0.5" y="0.5" width="23" height="23" rx="3" fill="#35C99A" stroke="#35C99A" />

    <text x="5" y="17" fill="#080C0A" font-family="Inter, Segoe UI, Arial, sans-serif" font-size="11" font-weight="950" letter-spacing="0" >KH</text>
  </g><text x="48" y="23" fill="#F4F7F2" font-family="Inter, Segoe UI, Arial, sans-serif" font-size="12" font-weight="850" letter-spacing="0" >PORTF&#211;LIO DE SISTEMAS WEB</text><text x="682" y="23" fill="#65736A" font-family="Consolas, Cascadia Mono, Segoe UI, monospace" font-size="10" font-weight="600" letter-spacing="0" >PARAN&#193; / BRASIL</text>
  </g>
  </g>
</svg>
