<svg width="900" height="300" viewBox="0 0 900 300" fill="none" xmlns="http://www.w3.org/2000/svg">
  <style>text{letter-spacing:0}</style>
  <g data-box="true">
    <rect data-bound="true" x="1" y="1" width="898" height="298" rx="7" fill="#080C0A" stroke="#2A3930" stroke-width="2"/>
    <rect x="0" y="0" width="8" height="300" rx="4" fill="#FF6B4A"/>
    <path d="M30 0V300M874 0V300" stroke="#1A241E"/>
    <path d="M0 42H900M0 276H900" stroke="#1A241E"/>
    <g transform="translate(26 58)" data-box="true">
    <rect data-bound="true" x="0.5" y="0.5" width="293" height="213" rx="6" fill="#101713" stroke="#2A3930" />
    <rect x="0" y="0" width="6" height="214" rx="3" fill="#FF6B4A"/>
    <text x="22" y="30" fill="#FF6B4A" font-family="Consolas, Cascadia Mono, Segoe UI, monospace" font-size="12" font-weight="850" letter-spacing="0" >PORTF&#211;LIO EM N&#218;MEROS</text><text x="22" y="78" fill="#F4F7F2" font-family="Inter, Segoe UI, Arial, sans-serif" font-size="26" font-weight="950" letter-spacing="0" >Evid&#234;ncia antes</text><text x="22" y="112" fill="#F4F7F2" font-family="Inter, Segoe UI, Arial, sans-serif" font-size="26" font-weight="950" letter-spacing="0" >de promessa.</text><text x="22" y="154" fill="#9FB0A5" font-family="Inter, Segoe UI, Arial, sans-serif" font-size="13" font-weight="550" letter-spacing="0" >Projetos publicados, interfaces</text><text x="22" y="176" fill="#9FB0A5" font-family="Inter, Segoe UI, Arial, sans-serif" font-size="13" font-weight="550" letter-spacing="0" >distintas e valida&#231;&#227;o objetiva.</text><text x="22" y="201" fill="#65736A" font-family="Consolas, Cascadia Mono, Segoe UI, monospace" font-size="10" font-weight="700" letter-spacing="0" >AUDITORIA / 2026.07</text>
  </g>
   <g transform="translate(342 58)" data-box="true">
    <rect data-bound="true" x="0.5" y="0.5" width="245" height="103" rx="5" fill="#151F19" stroke="#2A3930" />

    <text x="18" y="43" fill="#35C99A" font-family="Inter, Segoe UI, Arial, sans-serif" font-size="36" font-weight="950" letter-spacing="0" >29</text><text x="82" y="35" fill="#F4F7F2" font-family="Inter, Segoe UI, Arial, sans-serif" font-size="13" font-weight="850" letter-spacing="0" >REPOSIT&#211;RIOS</text><text x="82" y="60" fill="#9FB0A5" font-family="Consolas, Cascadia Mono, Segoe UI, monospace" font-size="11" font-weight="500" letter-spacing="0" >portf&#243;lio p&#250;blico</text><rect x="18" y="78" width="210" height="5" rx="2.5" fill="#1A241E"/><rect x="18" y="78" width="208" height="5" rx="2.5" fill="#35C99A"/>
  </g>
   <g transform="translate(600 58)" data-box="true">
    <rect data-bound="true" x="0.5" y="0.5" width="245" height="103" rx="5" fill="#151F19" stroke="#2A3930" />

    <text x="18" y="43" fill="#6F9EFF" font-family="Inter, Segoe UI, Arial, sans-serif" font-size="36" font-weight="950" letter-spacing="0" >21</text><text x="82" y="35" fill="#F4F7F2" font-family="Inter, Segoe UI, Arial, sans-serif" font-size="13" font-weight="850" letter-spacing="0" >INTERFACES</text><text x="82" y="60" fill="#9FB0A5" font-family="Consolas, Cascadia Mono, Segoe UI, monospace" font-size="11" font-weight="500" letter-spacing="0" >desktop + mobile</text><rect x="18" y="78" width="210" height="5" rx="2.5" fill="#1A241E"/><rect x="18" y="78" width="179" height="5" rx="2.5" fill="#6F9EFF"/>
  </g>
   <g transform="translate(342 168)" data-box="true">
    <rect data-bound="true" x="0.5" y="0.5" width="503" height="103" rx="5" fill="#151F19" stroke="#2A3930" />

    <text x="18" y="43" fill="#F2C14E" font-family="Inter, Segoe UI, Arial, sans-serif" font-size="36" font-weight="950" letter-spacing="0" >10</text><text x="82" y="35" fill="#F4F7F2" font-family="Inter, Segoe UI, Arial, sans-serif" font-size="13" font-weight="850" letter-spacing="0" >DESTAQUES</text><text x="82" y="60" fill="#9FB0A5" font-family="Consolas, Cascadia Mono, Segoe UI, monospace" font-size="11" font-weight="500" letter-spacing="0" >cases + sistemas</text><rect x="18" y="78" width="468" height="5" rx="2.5" fill="#1A241E"/><rect x="18" y="78" width="309" height="5" rx="2.5" fill="#F2C14E"/>
  </g>
   <text x="28" y="28" fill="#65736A" font-family="Consolas, Cascadia Mono, Segoe UI, monospace" font-size="11" font-weight="700" letter-spacing="0" >01 / PROVA DE EXECU&#199;&#195;O</text>
  </g>
</svg>
