<svg width="1280" height="330" viewBox="0 0 1280 330" fill="none" xmlns="http://www.w3.org/2000/svg">
  <defs>
    <linearGradient id="bg" x1="0" y1="0" x2="1280" y2="330">
      <stop stop-color="#020617"/>
      <stop offset="1" stop-color="#111827"/>
    </linearGradient>
    <linearGradient id="line" x1="130" y1="170" x2="1150" y2="170">
      <stop stop-color="#22D3EE"/>
      <stop offset="0.5" stop-color="#8B5CF6"/>
      <stop offset="1" stop-color="#F97316"/>
    </linearGradient>
  </defs>
  <rect width="1280" height="330" rx="28" fill="url(#bg)"/>
  <rect x="28" y="28" width="1224" height="274" rx="24" stroke="#334155"/>
  <text x="56" y="76" fill="#F8FAFC" font-family="Inter, Segoe UI, Arial, sans-serif" font-size="32" font-weight="900">Plano t&#233;cnico</text>
  <text x="56" y="110" fill="#94A3B8" font-family="Inter, Segoe UI, Arial, sans-serif" font-size="18">Dos projetos b&#225;sicos para aplica&#231;&#245;es completas publicadas.</text>
  <rect x="130" y="174" width="1020" height="8" rx="4" fill="url(#line)" opacity="0.9"/>

  <g transform="translate(80 145)">
    <circle cx="50" cy="33" r="30" fill="#22D3EE"/>
    <text x="10" y="100" fill="#F8FAFC" font-family="Inter, Segoe UI, Arial, sans-serif" font-size="17" font-weight="900">Base JS</text>
    <text x="14" y="126" fill="#94A3B8" font-family="Inter, Segoe UI, Arial, sans-serif" font-size="15">feito</text>
  </g>
  <g transform="translate(335 145)">
    <circle cx="50" cy="33" r="30" fill="#38BDF8"/>
    <text x="8" y="100" fill="#F8FAFC" font-family="Inter, Segoe UI, Arial, sans-serif" font-size="17" font-weight="900">APIs Node</text>
    <text x="16" y="126" fill="#94A3B8" font-family="Inter, Segoe UI, Arial, sans-serif" font-size="15">feito</text>
  </g>
  <g transform="translate(590 145)">
    <circle cx="50" cy="33" r="30" fill="#8B5CF6"/>
    <text x="10" y="100" fill="#F8FAFC" font-family="Inter, Segoe UI, Arial, sans-serif" font-size="17" font-weight="900">Sistemas</text>
    <text x="0" y="126" fill="#94A3B8" font-family="Inter, Segoe UI, Arial, sans-serif" font-size="15">em cria&#231;&#227;o</text>
  </g>
  <g transform="translate(845 145)">
    <circle cx="50" cy="33" r="30" fill="#F97316"/>
    <text x="18" y="100" fill="#F8FAFC" font-family="Inter, Segoe UI, Arial, sans-serif" font-size="17" font-weight="900">Banco</text>
    <text x="4" y="126" fill="#94A3B8" font-family="Inter, Segoe UI, Arial, sans-serif" font-size="15">pr&#243;ximo</text>
  </g>
  <g transform="translate(1100 145)">
    <circle cx="50" cy="33" r="30" fill="#22C55E"/>
    <text x="12" y="100" fill="#F8FAFC" font-family="Inter, Segoe UI, Arial, sans-serif" font-size="17" font-weight="900">Publicar</text>
    <text x="4" y="126" fill="#94A3B8" font-family="Inter, Segoe UI, Arial, sans-serif" font-size="15">pr&#243;ximo</text>
  </g>
</svg>
