<svg width="1280" height="320" viewBox="0 0 1280 320" fill="none" xmlns="http://www.w3.org/2000/svg">
  <defs>
    <linearGradient id="bg" x1="0" y1="0" x2="1280" y2="320">
      <stop stop-color="#020617"/>
      <stop offset="1" stop-color="#111827"/>
    </linearGradient>
    <linearGradient id="bar" x1="0" y1="0" x2="278" y2="0">
      <stop stop-color="#22D3EE"/>
      <stop offset="1" stop-color="#8B5CF6"/>
    </linearGradient>
  </defs>
  <rect width="1280" height="320" rx="28" fill="url(#bg)"/>
  <rect x="28" y="28" width="1224" height="264" rx="24" stroke="#334155"/>
  <text x="56" y="72" fill="#F8FAFC" font-family="Inter, Segoe UI, Arial, sans-serif" font-size="32" font-weight="900">Matriz de tecnologias</text>
  <text x="56" y="104" fill="#94A3B8" font-family="Inter, Segoe UI, Arial, sans-serif" font-size="18">Habilidades organizadas pelo uso pr&#225;tico nos projetos.</text>

  <g transform="translate(48 142)">
    <rect width="278" height="112" rx="18" fill="#0F172A" stroke="#1E293B"/>
    <rect width="278" height="6" rx="3" fill="url(#bar)"/>
    <text x="24" y="46" fill="#F8FAFC" font-family="Inter, Segoe UI, Arial, sans-serif" font-size="23" font-weight="900">Interface</text>
    <text x="24" y="82" fill="#CBD5E1" font-family="Inter, Segoe UI, Arial, sans-serif" font-size="17">HTML, CSS e JavaScript</text>
  </g>
  <g transform="translate(350 142)">
    <rect width="278" height="112" rx="18" fill="#0F172A" stroke="#1E293B"/>
    <rect width="278" height="6" rx="3" fill="url(#bar)"/>
    <text x="24" y="46" fill="#F8FAFC" font-family="Inter, Segoe UI, Arial, sans-serif" font-size="23" font-weight="900">Servidor</text>
    <text x="24" y="82" fill="#CBD5E1" font-family="Inter, Segoe UI, Arial, sans-serif" font-size="17">Node.js, API REST e PHP</text>
  </g>
  <g transform="translate(652 142)">
    <rect width="278" height="112" rx="18" fill="#0F172A" stroke="#1E293B"/>
    <rect width="278" height="6" rx="3" fill="url(#bar)"/>
    <text x="24" y="46" fill="#F8FAFC" font-family="Inter, Segoe UI, Arial, sans-serif" font-size="23" font-weight="900">Produto</text>
    <text x="24" y="82" fill="#CBD5E1" font-family="Inter, Segoe UI, Arial, sans-serif" font-size="17">Pain&#233;is, CRM e ERP</text>
  </g>
  <g transform="translate(954 142)">
    <rect width="278" height="112" rx="18" fill="#0F172A" stroke="#1E293B"/>
    <rect width="278" height="6" rx="3" fill="url(#bar)"/>
    <text x="24" y="46" fill="#F8FAFC" font-family="Inter, Segoe UI, Arial, sans-serif" font-size="23" font-weight="900">Qualidade</text>
    <text x="24" y="82" fill="#CBD5E1" font-family="Inter, Segoe UI, Arial, sans-serif" font-size="17">Testes, documentos e GitHub</text>
  </g>
</svg>
