<svg width="1280" height="180" viewBox="0 0 1280 180" fill="none" xmlns="http://www.w3.org/2000/svg">
  <defs>
    <linearGradient id="bg" x1="0" y1="0" x2="1280" y2="180">
      <stop stop-color="#020617"/>
      <stop offset="1" stop-color="#0F172A"/>
    </linearGradient>
    <linearGradient id="line" x1="76" y1="92" x2="1204" y2="92">
      <stop stop-color="#22D3EE"/>
      <stop offset="0.5" stop-color="#8B5CF6"/>
      <stop offset="1" stop-color="#F97316"/>
    </linearGradient>
  </defs>
  <rect width="1280" height="180" rx="28" fill="url(#bg)"/>
  <rect x="28" y="28" width="1224" height="124" rx="24" stroke="#334155"/>
  <rect x="76" y="88" width="1128" height="6" rx="3" fill="url(#line)" opacity="0.92"/>

  <g transform="translate(66 50)">
    <rect width="230" height="80" rx="18" fill="#0F172A" stroke="#1E293B"/>
    <circle cx="42" cy="40" r="18" fill="#22D3EE"/>
    <text x="72" y="36" fill="#F8FAFC" font-family="Inter, Segoe UI, Arial, sans-serif" font-size="18" font-weight="900">Aprender</text>
    <text x="72" y="60" fill="#94A3B8" font-family="Inter, Segoe UI, Arial, sans-serif" font-size="14">base e pr&#225;tica</text>
  </g>

  <g transform="translate(362 50)">
    <rect width="230" height="80" rx="18" fill="#0F172A" stroke="#1E293B"/>
    <circle cx="42" cy="40" r="18" fill="#38BDF8"/>
    <text x="72" y="36" fill="#F8FAFC" font-family="Inter, Segoe UI, Arial, sans-serif" font-size="18" font-weight="900">Construir</text>
    <text x="72" y="60" fill="#94A3B8" font-family="Inter, Segoe UI, Arial, sans-serif" font-size="14">projetos reais</text>
  </g>

  <g transform="translate(658 50)">
    <rect width="230" height="80" rx="18" fill="#0F172A" stroke="#1E293B"/>
    <circle cx="42" cy="40" r="18" fill="#8B5CF6"/>
    <text x="72" y="36" fill="#F8FAFC" font-family="Inter, Segoe UI, Arial, sans-serif" font-size="18" font-weight="900">Organizar</text>
    <text x="72" y="60" fill="#94A3B8" font-family="Inter, Segoe UI, Arial, sans-serif" font-size="14">c&#243;digo e README</text>
  </g>

  <g transform="translate(954 50)">
    <rect width="230" height="80" rx="18" fill="#0F172A" stroke="#1E293B"/>
    <circle cx="42" cy="40" r="18" fill="#F97316"/>
    <text x="72" y="36" fill="#F8FAFC" font-family="Inter, Segoe UI, Arial, sans-serif" font-size="18" font-weight="900">Publicar</text>
    <text x="72" y="60" fill="#94A3B8" font-family="Inter, Segoe UI, Arial, sans-serif" font-size="14">GitHub e evolu&#231;&#227;o</text>
  </g>
</svg>
