<svg width="900" height="300" viewBox="0 0 900 300" fill="none" xmlns="http://www.w3.org/2000/svg">
  <style>text{letter-spacing:0}</style>
  <g data-box="true">
    <rect data-bound="true" x="1" y="1" width="898" height="298" rx="7" fill="#080C0A" stroke="#2A3930" stroke-width="2"/>
    <rect x="0" y="0" width="8" height="300" rx="4" fill="#35C99A"/>
    <path d="M30 0V300M874 0V300" stroke="#1A241E"/>
    <path d="M0 42H900M0 276H900" stroke="#1A241E"/>
    <text x="28" y="30" fill="#65736A" font-family="Consolas, Cascadia Mono, Segoe UI, monospace" font-size="11" font-weight="700" letter-spacing="0" >04 / PROCESSO DE TRABALHO</text><text x="28" y="70" fill="#F4F7F2" font-family="Inter, Segoe UI, Arial, sans-serif" font-size="28" font-weight="950" letter-spacing="0" >Quatro etapas. Nenhuma caixa-preta.</text>
   <g transform="translate(28 96)" data-box="true">
    <rect data-bound="true" x="0.5" y="0.5" width="409" height="91" rx="6" fill="#101713" stroke="#2A3930" />

    <g transform="translate(16 16)" data-box="true">
    <rect data-bound="true" x="0.5" y="0.5" width="45" height="45" rx="4" fill="#35C99A" stroke="#35C99A" />

    <text x="14" y="31" fill="#080C0A" font-family="Inter, Segoe UI, Arial, sans-serif" font-size="20" font-weight="950" letter-spacing="0" >1</text>
  </g><text x="82" y="38" fill="#F4F7F2" font-family="Inter, Segoe UI, Arial, sans-serif" font-size="17" font-weight="900" letter-spacing="0" >ENTENDER</text><text x="82" y="62" fill="#9FB0A5" font-family="Inter, Segoe UI, Arial, sans-serif" font-size="12" font-weight="550" letter-spacing="0" >processo, gargalos e resultado</text>
  </g><g transform="translate(462 96)" data-box="true">
    <rect data-bound="true" x="0.5" y="0.5" width="409" height="91" rx="6" fill="#101713" stroke="#2A3930" />

    <g transform="translate(16 16)" data-box="true">
    <rect data-bound="true" x="0.5" y="0.5" width="45" height="45" rx="4" fill="#FF6B4A" stroke="#FF6B4A" />

    <text x="14" y="31" fill="#080C0A" font-family="Inter, Segoe UI, Arial, sans-serif" font-size="20" font-weight="950" letter-spacing="0" >2</text>
  </g><text x="82" y="38" fill="#F4F7F2" font-family="Inter, Segoe UI, Arial, sans-serif" font-size="17" font-weight="900" letter-spacing="0" >MODELAR</text><text x="82" y="62" fill="#9FB0A5" font-family="Inter, Segoe UI, Arial, sans-serif" font-size="12" font-weight="550" letter-spacing="0" >dados, estados e regras</text>
  </g><g transform="translate(28 200)" data-box="true">
    <rect data-bound="true" x="0.5" y="0.5" width="409" height="91" rx="6" fill="#101713" stroke="#2A3930" />

    <g transform="translate(16 16)" data-box="true">
    <rect data-bound="true" x="0.5" y="0.5" width="45" height="45" rx="4" fill="#F2C14E" stroke="#F2C14E" />

    <text x="14" y="31" fill="#080C0A" font-family="Inter, Segoe UI, Arial, sans-serif" font-size="20" font-weight="950" letter-spacing="0" >3</text>
  </g><text x="82" y="38" fill="#F4F7F2" font-family="Inter, Segoe UI, Arial, sans-serif" font-size="17" font-weight="900" letter-spacing="0" >CONSTRUIR</text><text x="82" y="62" fill="#9FB0A5" font-family="Inter, Segoe UI, Arial, sans-serif" font-size="12" font-weight="550" letter-spacing="0" >interface, API e automa&#231;&#245;es</text>
  </g><g transform="translate(462 200)" data-box="true">
    <rect data-bound="true" x="0.5" y="0.5" width="409" height="91" rx="6" fill="#101713" stroke="#2A3930" />

    <g transform="translate(16 16)" data-box="true">
    <rect data-bound="true" x="0.5" y="0.5" width="45" height="45" rx="4" fill="#6F9EFF" stroke="#6F9EFF" />

    <text x="14" y="31" fill="#080C0A" font-family="Inter, Segoe UI, Arial, sans-serif" font-size="20" font-weight="950" letter-spacing="0" >4</text>
  </g><text x="82" y="38" fill="#F4F7F2" font-family="Inter, Segoe UI, Arial, sans-serif" font-size="17" font-weight="900" letter-spacing="0" >VALIDAR</text><text x="82" y="62" fill="#9FB0A5" font-family="Inter, Segoe UI, Arial, sans-serif" font-size="12" font-weight="550" letter-spacing="0" >cen&#225;rios, testes e entrega</text>
  </g>
  </g>
</svg>
